<?xml version="1.0" encoding="UTF-8" standalone="no"?>
<!-- Created with Inkscape (http://www.inkscape.org/) -->

<svg
   width="23.413889mm"
   height="23.413881mm"
   viewBox="0 0 23.413889 23.413881"
   version="1.1"
   id="svg1"
   sodipodi:docname="correo.svg"
   inkscape:version="1.4.2 (f4327f4, 2025-05-13)"
   xmlns:inkscape="http://www.inkscape.org/namespaces/inkscape"
   xmlns:sodipodi="http://sodipodi.sourceforge.net/DTD/sodipodi-0.dtd"
   xmlns="http://www.w3.org/2000/svg"
   xmlns:svg="http://www.w3.org/2000/svg">
  <sodipodi:namedview
     id="namedview1"
     pagecolor="#ffffff"
     bordercolor="#000000"
     borderopacity="0.25"
     inkscape:showpageshadow="2"
     inkscape:pageopacity="0.0"
     inkscape:pagecheckerboard="0"
     inkscape:deskcolor="#d1d1d1"
     inkscape:document-units="mm"
     inkscape:zoom="9.324916"
     inkscape:cx="25.898357"
     inkscape:cy="44.987"
     inkscape:window-width="2560"
     inkscape:window-height="1369"
     inkscape:window-x="1912"
     inkscape:window-y="201"
     inkscape:window-maximized="1"
     inkscape:current-layer="svg1" />
  <defs
     id="defs1" />
  <g
     id="layer1"
     style="display:none"
     transform="translate(-117.59455,-88.155761)">
    <rect
       style="fill:#000000;stroke-width:0.264583"
       id="rect2"
       width="183.74806"
       height="156.00771"
       x="20.614395"
       y="36.393318" />
  </g>
  <g
     id="layer4"
     style="display:inline"
     transform="translate(-117.59455,-88.155761)">
    <circle
       style="fill:#000000;stroke-width:0.468108"
       id="path4-2"
       cx="129.30148"
       cy="99.862701"
       r="11.706941" />
    <rect
       style="fill:#ffffff;stroke-width:0.24864"
       id="rect10"
       width="16.542416"
       height="8.652956"
       x="121.03052"
       y="95.733307" />
    <rect
       style="fill:#000000;stroke-width:0.380268"
       id="rect11"
       width="1.1725029"
       height="10.290957"
       x="-16.415092"
       y="154.26526"
       transform="matrix(0.59164933,-0.80619543,0.8455706,0.53386362,0,0)" />
    <rect
       style="fill:#000000;stroke-width:0.400881"
       id="rect13"
       width="1.2360653"
       height="10.848838"
       x="-154.94975"
       y="-55.557087"
       transform="matrix(-0.59164933,-0.80619543,-0.8455706,0.53386362,0,0)" />
  </g>
  <path
     style="fill:#0d1f35;fill-opacity:1;stroke-width:0.10724"
     d="M 40.697417,88.305686 C 35.649479,87.845127 30.847507,86.617853 26.380935,84.646724 14.54566,79.423734 5.4641732,69.065093 1.8671006,56.685445 0.45267241,51.817563 -0.07031517,47.506635 0.1254856,42.329507 0.47569589,33.06967 3.8935804,23.988718 9.821395,16.568514 10.457502,15.77226 11.922153,14.176973 13.076177,13.023431 15.935233,10.165564 18.324234,8.2856614 21.501534,6.3935227 27.148124,3.0308776 32.947546,1.0751563 39.571402,0.29987572 41.533982,0.07016812 46.519564,0.0421252 48.472286,0.24981002 58.977575,1.3671165 68.356491,5.8285559 75.62192,13.164568 c 9.306608,9.397022 13.909018,22.416916 12.571428,35.56368 -1.402393,13.783678 -9.272559,26.196703 -21.139288,33.341417 -5.336265,3.212854 -11.062564,5.197371 -17.402138,6.030915 -2.006446,0.263813 -7.045886,0.379243 -8.954505,0.205106 z M 75.603898,45.351746 V 29.308838 l -0.348529,0.20871 c -0.19169,0.114792 -7.03789,4.433505 -15.213778,9.597141 -8.175889,5.163636 -14.969172,9.444045 -15.096187,9.512021 -0.127014,0.06798 -0.29026,0.08861 -0.362769,0.04585 -0.07251,-0.04276 -7.189869,-4.532967 -15.816358,-9.978238 -8.626489,-5.445273 -15.708322,-9.900496 -15.737407,-9.900496 -0.02909,0 -0.05288,7.335187 -0.05288,16.300415 V 61.394656 H 44.289945 75.6039 Z m -19.199719,-9.29244 11.762786,-7.42634 -11.769072,-0.02728 c -6.472989,-0.015 -17.117149,-0.015 -23.653688,0 l -11.884619,0.02728 11.741989,7.421575 c 6.458094,4.081867 11.809,7.42372 11.890903,7.426341 0.0819,0.0026 5.442169,-3.337089 11.911701,-7.421576 z"
     id="path3"
     transform="scale(0.26458333)" />
</svg>
