<?xml version="1.0" encoding="UTF-8" standalone="no"?>
<!-- Created with Inkscape (http://www.inkscape.org/) -->

<svg
   width="23.413879mm"
   height="23.413881mm"
   viewBox="0 0 23.413879 23.413881"
   version="1.1"
   id="svg1"
   sodipodi:docname="rrss.svg"
   inkscape:version="1.4.2 (f4327f4, 2025-05-13)"
   xmlns:inkscape="http://www.inkscape.org/namespaces/inkscape"
   xmlns:sodipodi="http://sodipodi.sourceforge.net/DTD/sodipodi-0.dtd"
   xmlns="http://www.w3.org/2000/svg"
   xmlns:svg="http://www.w3.org/2000/svg">
  <sodipodi:namedview
     id="namedview1"
     pagecolor="#ffffff"
     bordercolor="#000000"
     borderopacity="0.25"
     inkscape:showpageshadow="2"
     inkscape:pageopacity="0.0"
     inkscape:pagecheckerboard="0"
     inkscape:deskcolor="#d1d1d1"
     inkscape:document-units="mm"
     inkscape:zoom="13.187423"
     inkscape:cx="44.246705"
     inkscape:cy="44.246705"
     inkscape:window-width="2560"
     inkscape:window-height="1369"
     inkscape:window-x="1912"
     inkscape:window-y="201"
     inkscape:window-maximized="1"
     inkscape:current-layer="svg1" />
  <defs
     id="defs1" />
  <g
     id="layer1"
     style="display:none"
     transform="translate(-145.0248,-87.117523)">
    <rect
       style="fill:#000000;stroke-width:0.264583"
       id="rect2"
       width="183.74806"
       height="156.00771"
       x="20.614395"
       y="36.393318" />
  </g>
  <g
     id="layer5"
     style="display:inline"
     transform="translate(-145.0248,-87.117523)">
    <circle
       style="fill:#000000;stroke-width:0.468108"
       id="path4-2-2"
       cx="156.73175"
       cy="98.824455"
       r="11.706941" />
    <circle
       style="fill:#ffffff;stroke-width:0.376724"
       id="path13"
       cx="150.80103"
       cy="98.096046"
       r="2.5623126" />
    <circle
       style="fill:#ffffff;stroke-width:0.376724"
       id="circle13"
       cx="159.71609"
       cy="104.3326"
       r="2.5623126" />
    <circle
       style="fill:#ffffff;stroke-width:0.376724"
       id="circle14"
       cx="160.51518"
       cy="94.070831"
       r="2.5623126" />
    <rect
       style="fill:#ffffff;stroke-width:0.120422"
       id="rect14"
       width="0.81905872"
       height="4.586729"
       x="152.03609"
       y="-102.89767"
       transform="rotate(65.074488)" />
    <rect
       style="fill:#ffffff;stroke-width:0.120422"
       id="rect16"
       width="0.81905872"
       height="4.586729"
       x="-4.4575715"
       y="183.02225"
       transform="matrix(-0.56629179,0.82420484,0.82420484,0.56629179,0,0)" />
    <circle
       style="fill:#000000;stroke-width:0.234275"
       id="circle17"
       cx="159.73332"
       cy="104.43161"
       r="1.593441" />
    <circle
       style="fill:#000000;stroke-width:0.234275"
       id="circle18"
       cx="150.80292"
       cy="98.065605"
       r="1.593441" />
    <circle
       style="fill:#000000;stroke-width:0.234275"
       id="circle19"
       cx="160.56563"
       cy="94.129028"
       r="1.593441" />
  </g>
  <path
     style="fill:#0d1f35;stroke-width:0.0758298"
     d="M 41.516831,88.376753 C 26.821271,87.369088 13.901416,79.494532 6.3122525,66.919823 4.246125,63.496397 2.4177587,59.093491 1.4156561,55.128285 0.35583879,50.934708 -0.05016633,47.131742 0.08595349,42.673236 0.35679435,33.802039 3.5121052,24.875094 8.9052018,17.721985 11.442999,14.355991 14.390673,11.406426 17.706265,8.9152803 24.27588,3.9792479 31.850681,1.0579885 40.265639,0.21514667 c 1.858374,-0.18613473 6.103757,-0.18613473 7.962132,0 9.716927,0.97324693 18.397525,4.75674143 25.505705,11.11682533 4.157081,3.719571 7.516752,8.133173 10.04717,13.198977 2.46014,4.925102 3.896948,9.937147 4.499803,15.696775 0.0645,0.616183 0.09922,2.022547 0.09922,4.018981 0,3.132227 -0.03919,3.811507 -0.349978,6.066386 -1.0089,7.319993 -3.998476,14.565379 -8.441482,20.458333 -1.702046,2.257506 -3.839158,4.59251 -5.843697,6.384812 -7.082626,6.332731 -15.901087,10.18431 -25.440907,11.111648 -1.476632,0.143538 -5.37026,0.205999 -6.78677,0.108869 z M 57.48984,74.576429 c 3.694145,-0.752818 6.487276,-3.443518 7.475784,-7.201627 0.254444,-0.967344 0.324705,-2.877078 0.144055,-3.915525 -0.700338,-4.025831 -3.659709,-7.089925 -7.650865,-7.921609 -1.009881,-0.210441 -2.666336,-0.22857 -3.657551,-0.04003 -1.367456,0.260104 -2.59805,0.760425 -3.753576,1.526086 -0.806063,0.534103 -2.073475,1.821969 -2.633167,2.67566 -1.654272,2.523242 -2.04607,5.618652 -1.079221,8.526421 1.015729,3.054776 3.652716,5.473676 6.836778,6.271355 1.346054,0.337217 2.911014,0.365948 4.317763,0.07927 z M 45.037727,59.649366 c 0.698381,-1.017673 0.834022,-1.258813 0.75103,-1.335155 -0.262023,-0.241028 -14.185667,-9.751773 -14.246096,-9.731001 -0.114648,0.03941 -1.745399,2.443331 -1.723743,2.541002 0.0283,0.127638 14.260157,9.89102 14.318624,9.822907 0.02633,-0.03067 0.431412,-0.614661 0.900185,-1.297753 z M 23.696821,51.033943 c 3.910808,-0.806154 6.830174,-3.713679 7.67588,-7.644748 0.189835,-0.882404 0.185345,-2.953278 -0.0083,-3.84394 -0.393838,-1.811112 -1.217136,-3.39188 -2.448038,-4.700337 -1.411618,-1.500558 -3.379858,-2.571185 -5.362475,-2.916924 -0.864601,-0.150774 -2.556223,-0.152326 -3.411771,-0.0031 -4.033509,0.703385 -7.191035,3.884719 -7.893085,7.952602 -0.147349,0.853783 -0.148626,2.307876 -0.0028,3.206891 0.399296,2.461935 1.791695,4.740442 3.801287,6.220385 1.181287,0.869946 2.818192,1.568218 4.123266,1.758903 0.312798,0.0457 0.654033,0.09801 0.758299,0.116237 0.393026,0.06871 2.184838,-0.02577 2.767788,-0.145938 z m 16.5552,-16.619126 c 4.282397,-1.987977 7.797106,-3.622762 7.810466,-3.632857 0.04911,-0.03711 -1.264729,-2.797169 -1.344103,-2.823627 -0.07438,-0.02479 -15.601064,7.14393 -15.714086,7.255246 -0.087,0.08569 1.252003,2.889958 1.361421,2.851204 0.05507,-0.0195 3.603906,-1.661989 7.886302,-3.649966 z M 60.133054,35.8639 c 3.532742,-0.572506 6.475371,-3.077872 7.614384,-6.482914 0.667216,-1.994622 0.66983,-4.20945 0.0073,-6.190063 -0.501678,-1.499765 -1.208813,-2.636065 -2.351405,-3.778487 -1.129082,-1.128914 -2.418266,-1.922743 -3.867434,-2.381415 -1.132812,-0.358543 -1.62749,-0.424904 -3.109023,-0.417081 -1.265777,0.0067 -1.428289,0.02394 -2.23698,0.237562 -1.777728,0.469593 -3.27295,1.316971 -4.514394,2.558415 -3.082144,3.082145 -3.735261,7.921775 -1.576278,11.680313 1.458043,2.538282 3.962984,4.294834 6.80629,4.772807 0.840655,0.141319 2.358327,0.141725 3.227533,8.63e-4 z"
     id="path1"
     transform="scale(0.26458333)" />
  <path
     style="fill:#0d1f35;stroke-width:0.0758298"
     d="m 57.794759,32.408071 c -1.256049,-0.20885 -2.338358,-0.780785 -3.273112,-1.729641 -1.207083,-1.225292 -1.741453,-2.506682 -1.741453,-4.175905 0,-1.596134 0.520042,-2.903648 1.6199,-4.072831 2.522124,-2.681096 6.697267,-2.511573 9.006421,0.365686 0.606458,0.755663 1.068387,1.784248 1.236498,2.753335 0.09086,0.523788 0.05257,1.663467 -0.07547,2.246254 -0.06832,0.310963 -0.291093,0.911789 -0.495051,1.33517 -1.120143,2.325224 -3.749744,3.698276 -6.277736,3.277932 z"
     id="path2"
     transform="scale(0.26458333)" />
  <path
     style="fill:#0d1f35;stroke-width:0.0758298"
     d="m 20.806726,47.278333 c -2.250437,-0.406456 -4.101056,-2.111883 -4.74625,-4.373878 -0.21934,-0.768987 -0.235411,-2.229899 -0.03278,-2.98005 0.530514,-1.964017 2.015544,-3.562321 3.907857,-4.205939 3.389013,-1.152677 7.022298,0.956732 7.759278,4.504874 0.417217,2.008667 -0.299878,4.165798 -1.853814,5.576549 -0.636254,0.577629 -1.31206,0.967354 -2.178875,1.256517 -0.602591,0.20102 -0.856971,0.243447 -1.592427,0.265594 -0.481401,0.0145 -1.049745,-0.0052 -1.262986,-0.04367 z"
     id="path3"
     transform="scale(0.26458333)" />
  <path
     style="fill:#0d1f35;stroke-width:0.0758298"
     d="m 54.144061,71.236956 c -4.43125,-1.160054 -6.016146,-6.560547 -2.896005,-9.868061 1.172325,-1.242726 2.635064,-1.880395 4.313411,-1.880395 1.028733,0 1.707476,0.156133 2.637926,0.606806 1.576041,0.763373 2.732063,2.162602 3.194987,3.867154 0.185992,0.684849 0.185527,2.277121 -8.61e-4,2.952977 -0.317172,1.150087 -0.862617,2.036425 -1.79018,2.909009 -0.717114,0.67461 -1.633823,1.172728 -2.610396,1.418428 -0.806263,0.202851 -2.061371,0.200244 -2.848882,-0.0059 z"
     id="path4"
     transform="scale(0.26458333)" />
</svg>
