<?xml version="1.0" encoding="UTF-8" standalone="no"?>
<!-- Created with Inkscape (http://www.inkscape.org/) -->

<svg
   width="23.413879mm"
   height="23.413881mm"
   viewBox="0 0 23.413879 23.413881"
   version="1.1"
   id="svg1"
   sodipodi:docname="telefono.svg"
   inkscape:version="1.4.2 (f4327f4, 2025-05-13)"
   xmlns:inkscape="http://www.inkscape.org/namespaces/inkscape"
   xmlns:sodipodi="http://sodipodi.sourceforge.net/DTD/sodipodi-0.dtd"
   xmlns="http://www.w3.org/2000/svg"
   xmlns:svg="http://www.w3.org/2000/svg">
  <sodipodi:namedview
     id="namedview1"
     pagecolor="#ffffff"
     bordercolor="#000000"
     borderopacity="0.25"
     inkscape:showpageshadow="2"
     inkscape:pageopacity="0.0"
     inkscape:pagecheckerboard="0"
     inkscape:deskcolor="#d1d1d1"
     inkscape:document-units="mm"
     inkscape:zoom="9.3249162"
     inkscape:cx="24.77234"
     inkscape:cy="43.378406"
     inkscape:window-width="1920"
     inkscape:window-height="1009"
     inkscape:window-x="-8"
     inkscape:window-y="423"
     inkscape:window-maximized="1"
     inkscape:current-layer="svg1" />
  <defs
     id="defs1" />
  <g
     id="layer1"
     style="display:none"
     transform="translate(-87.802063,-87.038559)">
    <rect
       style="fill:#000000;stroke-width:0.264583"
       id="rect2"
       width="183.74806"
       height="156.00771"
       x="20.614395"
       y="36.393318" />
  </g>
  <g
     id="layer3"
     style="display:inline"
     transform="translate(-87.802063,-87.038559)">
    <circle
       style="fill:#000000;stroke-width:0.468108"
       id="path4"
       cx="99.509003"
       cy="98.745499"
       r="11.706941" />
    <rect
       style="fill:#ffffff;stroke-width:0.145655"
       id="rect5"
       width="0.6572479"
       height="15.768968"
       x="134.65015"
       y="0.50509691"
       transform="rotate(41.077637)" />
    <rect
       style="fill:#ffffff;stroke-width:0.145655"
       id="rect6"
       width="0.6572479"
       height="15.768968"
       x="144.17534"
       y="0.39788103"
       transform="rotate(41.077637)" />
    <rect
       style="fill:#ffffff;stroke-width:0.217333"
       id="rect7"
       width="2.2667506"
       height="10.179576"
       x="-16.625931"
       y="134.65274"
       transform="rotate(-48.922363)" />
    <rect
       style="fill:#ffffff;stroke-width:0.164682"
       id="rect8"
       width="1.3018172"
       height="10.177261"
       x="-1.6962819"
       y="134.65042"
       transform="rotate(-48.922363)" />
    <ellipse
       style="fill:#000000;stroke-width:0.226454"
       id="path8"
       cx="139.64304"
       cy="15.449631"
       rx="0.4843308"
       ry="0.44083655"
       transform="rotate(41.077637)" />
    <rect
       style="fill:#000000;stroke-width:0.0687059"
       id="rect9"
       width="0.44409844"
       height="5.1926904"
       x="0.71609545"
       y="-142.38818"
       transform="rotate(131.07764)" />
  </g>
  <path
     style="fill:#0d1f35;stroke-width:0.0758298;fill-opacity:1"
     d="M 41.51683,88.379109 C 32.833388,87.784179 24.724149,84.80095 17.820009,79.661523 9.6862579,73.606772 3.8495125,64.847262 1.3716612,54.976624 -0.20710447,48.687537 -0.37611894,42.066303 0.88000817,35.715848 3.7097588,21.409811 13.374874,9.4413238 26.767929,3.6583677 c 10.76689,-4.64901038 22.834639,-4.8197828 33.820102,-0.478593 1.548687,0.6120033 4.526002,2.0664305 5.990557,2.9264043 10.248181,6.01764 17.660782,15.908021 20.543597,27.410604 0.545398,2.176179 0.903375,4.278876 1.155434,6.78677 0.186632,1.856965 0.186632,6.029337 0,7.886302 -0.421515,4.19395 -1.233653,7.76304 -2.605498,11.450304 -3.884087,10.439727 -11.55618,19.023125 -21.482173,24.033854 -5.060097,2.554381 -10.039168,3.99128 -15.924263,4.595545 -1.374803,0.141157 -5.346512,0.205628 -6.748855,0.109551 z M 59.867648,54.796048 C 70.815579,42.236385 79.772978,31.912395 79.772978,31.853847 79.772978,31.72095 50.914916,6.5513483 50.792952,6.5778709 50.689159,6.6004422 52.227867,4.8415088 29.681305,30.71108 8.7007621,54.783825 10.502431,52.708751 10.502431,52.800364 c 0,0.04058 6.526104,5.762273 14.502454,12.714864 l 14.502455,12.641073 0.227489,-0.26225 C 39.859948,77.749815 48.919717,67.35571 59.867648,54.796048 Z"
     id="path1"
     transform="scale(0.26458333)" />
  <path
     style="fill:#0d1f35;fill-opacity:1;stroke-width:0.0758298"
     d="M 30.661734,58.955063 C 23.765611,52.943703 18.123329,47.996794 18.123329,47.961929 c 0,-0.05402 31.277008,-35.980816 31.324032,-35.980816 0.05695,0 25.131274,21.902579 25.131274,21.952327 0,0.07553 -31.217998,35.896791 -31.31154,35.928598 -0.03683,0.01252 -5.709239,-4.895617 -12.605361,-10.906975 z"
     id="path2"
     transform="scale(0.26458333)" />
  <path
     style="fill:#0d1f35;fill-opacity:1;stroke-width:0.0758298"
     d="M 63.84177,21.703535 C 59.959256,18.316404 56.655542,15.433261 56.500185,15.29655 l -0.282468,-0.248564 0.522227,-0.591674 0.522228,-0.591674 7.084762,6.176056 c 3.89662,3.396831 7.209375,6.283415 7.361679,6.414631 l 0.276916,0.238576 -0.497087,0.567823 c -0.273397,0.312302 -0.517441,0.575115 -0.54232,0.584027 -0.02488,0.0089 -3.221837,-2.755084 -7.104352,-6.142216 z"
     id="path3"
     transform="scale(0.26458333)" />
  <path
     style="fill:#0d1f35;fill-opacity:1;stroke-width:0.15166"
     d="m 26.88358,63.232159 c -0.847518,-0.459858 -1.155519,-1.829725 -0.556067,-2.473161 0.706459,-0.758294 1.733201,-0.714317 2.49463,0.10685 1.287777,1.38881 -0.259422,3.277403 -1.938563,2.366311 z"
     id="path5"
     transform="scale(0.26458333)" />
</svg>
